<svg width="16" height="16" viewBox="0 0 16 16" fill="none" xmlns="http://www.w3.org/2000/svg">
<path fill-rule="evenodd" clip-rule="evenodd" d="M2.31307 2.31307C2.50833 2.11781 2.82492 2.11781 3.02018 2.31307L13.6868 12.9797C13.8821 13.175 13.8821 13.4916 13.6868 13.6868C13.4916 13.8821 13.175 13.8821 12.9797 13.6868L2.31307 3.02018C2.11781 2.82492 2.11781 2.50833 2.31307 2.31307Z" fill="#333333"/>
<path fill-rule="evenodd" clip-rule="evenodd" d="M13.6868 2.31307C13.8821 2.50833 13.8821 2.82492 13.6868 3.02018L3.02018 13.6868C2.82492 13.8821 2.50833 13.8821 2.31307 13.6868C2.11781 13.4916 2.11781 13.175 2.31307 12.9797L12.9797 2.31307C13.175 2.11781 13.4916 2.11781 13.6868 2.31307Z" fill="#333333"/>
</svg>
