<svg width="36" height="36" viewBox="0 0 36 36" fill="none" xmlns="http://www.w3.org/2000/svg">
<circle cx="18" cy="18" r="16" fill="#FFCD29"/>
<path fill-rule="evenodd" clip-rule="evenodd" d="M11.8758 17.4282C12.4153 17.3277 12.9089 17.5141 13.2704 17.7337C14.2077 18.3031 14.8979 18.6602 15.5913 18.8808C16.2773 19.0991 16.9978 19.1936 18.0009 19.1936C19.0037 19.1936 19.7239 19.0991 20.4097 18.8809C21.1029 18.6602 21.793 18.3032 22.73 17.7339C23.0915 17.5142 23.5852 17.3277 24.1249 17.4282C25.6608 17.7143 26.784 18.9906 27.2886 20.5066C27.7978 22.0364 27.7204 23.91 26.7706 25.5636L26.7613 25.5792C25.7874 27.1625 23.9662 27.8937 22.2914 28.2456C20.6027 28.6004 18.9107 28.6004 18.0122 28.6004H17.9896C17.0908 28.6004 15.3984 28.6004 13.7094 28.2456C12.0343 27.8938 10.2127 27.1625 9.23858 25.5792L9.22936 25.5637C8.27928 23.91 8.20185 22.0363 8.71124 20.5064C9.21604 18.9903 10.3396 17.7142 11.8758 17.4282ZM12.6474 18.7593C12.4208 18.6217 12.2332 18.5822 12.0954 18.6079C11.1168 18.7901 10.2636 19.6426 9.84978 20.8855C9.44133 22.1123 9.50225 23.6243 10.2653 24.958C10.9757 26.1054 12.3789 26.74 13.9561 27.0713C15.5158 27.3989 17.1005 27.4004 18.0009 27.4004C18.9011 27.4004 20.4853 27.3989 22.0446 27.0713C23.6215 26.74 25.0243 26.1055 25.7346 24.958C26.4974 23.6243 26.5583 22.1123 26.15 20.8856C25.7363 19.6427 24.8833 18.7902 23.9051 18.6079C23.7674 18.5823 23.5797 18.6217 23.3531 18.7594C22.3921 19.3433 21.6048 19.7598 20.7737 20.0243C19.9352 20.2912 19.0841 20.3936 18.0009 20.3936C16.9174 20.3936 16.0661 20.2912 15.2274 20.0243C14.3961 19.7598 13.6087 19.3433 12.6474 18.7593Z" fill="#333333"/>
<path fill-rule="evenodd" clip-rule="evenodd" d="M17.9997 8.60039C15.5696 8.60039 13.5997 10.5704 13.5997 13.0005C13.5997 15.4306 15.5696 17.4006 17.9997 17.4006C20.4299 17.4006 22.3998 15.4306 22.3998 13.0005C22.3998 10.5704 20.4299 8.60039 17.9997 8.60039ZM12.3997 13.0005C12.3997 9.90764 14.9069 7.40039 17.9997 7.40039C21.0926 7.40039 23.5998 9.90764 23.5998 13.0005C23.5998 16.0933 21.0926 18.6006 17.9997 18.6006C14.9069 18.6006 12.3997 16.0933 12.3997 13.0005Z" fill="#333333"/>
</svg>
